<?xml version="1.0" standalone="no"?>
<!DOCTYPE svg PUBLIC "-//W3C//DTD SVG 20010904//EN"
 "http://www.w3.org/TR/2001/REC-SVG-20010904/DTD/svg10.dtd">
<svg version="1.0" xmlns="http://www.w3.org/2000/svg"
 width="98.000000pt" height="93.000000pt" viewBox="0 0 98.000000 93.000000"
 preserveAspectRatio="xMidYMid meet">

<g transform="translate(0.000000,93.000000) scale(0.100000,-0.100000)"
fill="#000000" stroke="none">
<path d="M351 914 c-251 -67 -400 -320 -336 -569 42 -158 172 -288 330 -330
116 -30 249 -13 350 45 49 28 138 110 157 144 5 9 34 32 64 51 29 19 54 42 54
50 0 20 -10 19 -40 -5 -36 -28 -41 -25 -24 16 22 53 29 163 14 236 -17 89 -53
159 -116 227 -115 125 -294 178 -453 135z m222 -19 c83 -22 133 -50 199 -113
126 -120 170 -306 111 -467 -24 -67 -66 -88 -183 -93 -72 -4 -97 0 -164 22
-43 15 -81 24 -84 22 -12 -13 24 -35 88 -56 58 -19 84 -22 157 -17 49 3 99 8
113 12 20 6 15 -2 -29 -48 -114 -117 -270 -162 -424 -122 -83 21 -133 50 -197
111 -145 138 -180 347 -89 526 30 58 119 150 178 181 100 55 217 70 324 42z"/>
<path d="M589 583 c-21 -55 4 -154 32 -126 27 27 18 153 -11 153 -6 0 -15 -12
-21 -27z"/>
<path d="M759 583 c-21 -55 4 -154 32 -126 27 27 18 153 -11 153 -6 0 -15 -12
-21 -27z"/>
</g>
</svg>
